<?xml version="1.0" encoding="UTF-8"?>
<svg width="200px" height="188px" viewBox="0 0 200 188" version="1.1" xmlns="http://www.w3.org/2000/svg" xmlns:xlink="http://www.w3.org/1999/xlink">
    <!-- Generator: Sketch 57 (83077) - https://sketch.com -->
    <title>history</title>
    <desc>Created with Sketch.</desc>
    <g id="页面-1" stroke="none" stroke-width="1" fill="none" fill-rule="evenodd">
        <g id="history" transform="translate(0.000000, -2.718750)" fill-rule="nonzero">
            <path d="M0,157.05375 C0,175.27875 44.7716666,190.05375 100,190.05375 C155.228333,190.05375 200,175.27875 200,157.05375 C200,138.82875 155.228333,124.05375 100,124.05375 C44.7716666,124.05375 0,138.82875 0,157.05375 Z" id="路径" fill="#F8F8F8"></path>
            <path d="M55.47,60.05375 L144.53,60.05375 C145.877949,60.05375 147.13477,60.7344792 147.873333,61.8620834 L173.345,100.73875 C173.771433,101.390154 173.998333,102.151846 173.998333,102.930417 L173.998333,158.05375 C173.998333,160.262889 172.207472,162.05375 169.998333,162.05375 L29.9983333,162.05375 C27.7891944,162.05375 25.9983333,160.262889 25.9983333,158.05375 L25.9983333,102.92875 C25.9983333,102.15018 26.2252341,101.388487 26.6516666,100.737083 L52.125,61.8620834 C52.8635635,60.7344792 54.1203844,60.05375 55.4683334,60.05375 L55.47,60.05375 Z" id="路径" fill="#F7F7F7"></path>
            <path d="M55.47,59.05375 L144.53,59.05375 C146.215152,59.0545562 147.786537,59.9041566 148.71,61.31375 L174.183333,100.18875 C174.716763,101.003598 175,101.956495 175,102.930417 L175,158.05375 C175,160.815174 172.761424,163.05375 170,163.05375 L30,163.05375 C27.2385763,163.05375 25,160.815174 25,158.05375 L25,102.92875 C25,101.955963 25.283859,101.004315 25.8166666,100.190417 L51.2883334,61.3054166 C52.2121206,59.895329 53.7842569,59.0454166 55.47,59.0454166 L55.47,59.05375 Z M55.47,61.05375 C54.46162,61.0570717 53.5223657,61.5667737 52.97,62.4104166 L27.4966666,101.285417 C27.1766089,101.774325 27.006666,102.346064 27.006666,102.930417 L27.006666,158.05375 C27.006666,158.849399 27.3227371,159.612461 27.8853463,160.17507 C28.4479554,160.737679 29.2110171,161.05375 30.006666,161.05375 L170.006666,161.05375 C171.663521,161.05375 173.006666,159.710604 173.006666,158.05375 L173.006666,102.92875 C173.006666,102.345532 172.836103,101.775043 172.516667,101.287083 L147.043333,62.4104166 C146.490968,61.5667737 145.551713,61.0570717 144.543333,61.05375 L55.47,61.05375 Z" id="形状" fill="#DCDFE6"></path>
            <path d="M52,18.0520834 L148,18.0520834 C150.209139,18.0520834 152,19.8429444 152,22.0520834 L152,130.052083 C152,132.261222 150.209139,134.052083 148,134.052083 L52,134.052083 C49.790861,134.052083 48,132.261222 48,130.052083 L48,22.0520834 C48,19.8429444 49.790861,18.0520834 52,18.0520834 Z" id="路径" fill-opacity="0.73" fill="#FFFFFF"></path>
            <path d="M56.0083334,17.05375 L56.0083334,19.05375 L52.0083334,19.05375 L52.0083334,17.05375 L56.0083334,17.05375 Z M64.0083334,17.05375 L64.0083334,19.05375 L60.0083334,19.05375 L60.0083334,17.05375 L64.0083334,17.05375 Z M72.0083334,17.05375 L72.0083334,19.05375 L68.0083334,19.05375 L68.0083334,17.05375 L72.0083334,17.05375 Z M80.0083334,17.05375 L80.0083334,19.05375 L76.0083334,19.05375 L76.0083334,17.05375 L80.0083334,17.05375 Z M88.0083334,17.05375 L88.0083334,19.05375 L84.0083334,19.05375 L84.0083334,17.05375 L88.0083334,17.05375 Z M96.0083334,17.05375 L96.0083334,19.05375 L92.0083334,19.05375 L92.0083334,17.05375 L96.0083334,17.05375 Z M104.008333,17.05375 L104.008333,19.05375 L100.008333,19.05375 L100.008333,17.05375 L104.008333,17.05375 Z M112.008333,17.05375 L112.008333,19.05375 L108.008333,19.05375 L108.008333,17.05375 L112.008333,17.05375 Z M120.008333,17.05375 L120.008333,19.05375 L116.008333,19.05375 L116.008333,17.05375 L120.008333,17.05375 Z M128.008333,17.05375 L128.008333,19.05375 L124.008333,19.05375 L124.008333,17.05375 L128.008333,17.05375 Z M136.008333,17.05375 L136.008333,19.05375 L132.008333,19.05375 L132.008333,17.05375 L136.008333,17.05375 Z M144.008333,17.05375 L144.008333,19.05375 L140.008333,19.05375 L140.008333,17.05375 L144.008333,17.05375 Z M152.341667,19.553749 L150.61,20.553749 C150.074056,19.6254672 149.083555,19.0536581 148.011667,19.053749 L148.011667,17.053749 C149.79914,17.0526039 151.451263,18.0057521 152.345,19.553749 L152.341667,19.553749 Z M153.008333,27.9304166 L151.008333,27.9304166 L151.008333,23.9304166 L153.008333,23.9304166 L153.008333,27.9304166 Z M153.008333,35.9304166 L151.008333,35.9304166 L151.008333,31.9304166 L153.008333,31.9304166 L153.008333,35.9304166 Z M153.008333,43.9304166 L151.008333,43.9304166 L151.008333,39.9304166 L153.008333,39.9304166 L153.008333,43.9304166 Z M153.008333,51.9304166 L151.008333,51.9304166 L151.008333,47.9304166 L153.008333,47.9304166 L153.008333,51.9304166 Z M153.008333,59.9304166 L151.008333,59.9304166 L151.008333,55.9304166 L153.008333,55.9304166 L153.008333,59.9304166 Z M153.008333,67.9304166 L151.008333,67.9304166 L151.008333,63.9304166 L153.008333,63.9304166 L153.008333,67.9304166 Z M153.008333,75.9304166 L151.008333,75.9304166 L151.008333,71.9304166 L153.008333,71.9304166 L153.008333,75.9304166 Z M153.008333,83.9304166 L151.008333,83.9304166 L151.008333,79.9304166 L153.008333,79.9304166 L153.008333,83.9304166 Z M153.008333,91.9304166 L151.008333,91.9304166 L151.008333,87.9304166 L153.008333,87.9304166 L153.008333,91.9304166 Z M153.008333,99.9304166 L151.008333,99.9304166 L151.008333,95.9304166 L153.008333,95.9304166 L153.008333,99.9304166 Z M153.008333,107.930417 L151.008333,107.930417 L151.008333,103.930417 L153.008333,103.930417 L153.008333,107.930417 Z M153.008333,115.930417 L151.008333,115.930417 L151.008333,111.930417 L153.008333,111.930417 L153.008333,115.930417 Z M153.008333,123.930417 L151.008333,123.930417 L151.008333,119.930417 L153.008333,119.930417 L153.008333,123.930417 Z M152.458333,132.335417 L150.678333,131.420417 C150.8971,130.998059 151.011407,130.529402 151.011667,130.05375 L151.011667,127.932083 L153.011673,127.932083 L153.011673,130.05375 C153.012918,130.846752 152.82433,131.628534 152.461667,132.33375 L152.458333,132.335417 Z M144.255,135.05375 L144.255,133.05375 L148.208333,133.05375 L148.338333,135.05375 C148.238333,135.05375 148.135,135.06375 148.028333,135.06375 L144.253333,135.06375 L144.255,135.05375 Z M136.255,135.05375 L136.255,133.05375 L140.255,133.05375 L140.255,135.05375 L136.255,135.05375 Z M128.255,135.05375 L128.255,133.05375 L132.255,133.05375 L132.255,135.05375 L128.255,135.05375 Z M120.255,135.05375 L120.255,133.05375 L124.255,133.05375 L124.255,135.05375 L120.255,135.05375 Z M112.255,135.05375 L112.255,133.05375 L116.255,133.05375 L116.255,135.05375 L112.255,135.05375 Z M104.255,135.05375 L104.255,133.05375 L108.255,133.05375 L108.255,135.05375 L104.255,135.05375 Z M96.255,135.05375 L96.255,133.05375 L100.255,133.05375 L100.255,135.05375 L96.255,135.05375 Z M88.255,135.05375 L88.255,133.05375 L92.255,133.05375 L92.255,135.05375 L88.255,135.05375 Z M80.255,135.05375 L80.255,133.05375 L84.255,133.05375 L84.255,135.05375 L80.255,135.05375 Z M72.255,135.05375 L72.255,133.05375 L76.255,133.05375 L76.255,135.05375 L72.255,135.05375 Z M64.255,135.05375 L64.255,133.05375 L68.255,133.05375 L68.255,135.05375 L64.255,135.05375 Z M56.255,135.05375 L56.255,133.05375 L60.255,133.05375 L60.255,135.05375 L56.255,135.05375 Z M47.865,132.85375 L49.5216666,131.73375 C50.0798178,132.559508 51.0116348,133.054145 52.0083334,133.05375 L52.255,133.05375 L52.255,135.053758 L52.0083334,135.053758 C50.3446132,135.056811 48.7883487,134.232134 47.8566666,132.85375 L47.865,132.85375 Z M47.0083334,124.422083 L49.0083334,124.422083 L49.0083334,128.422083 L47.0083334,128.422083 L47.0083334,124.422083 Z M47.0083334,116.422083 L49.0083334,116.422083 L49.0083334,120.422083 L47.0083334,120.422083 L47.0083334,116.422083 Z M47.0083334,108.422083 L49.0083334,108.422083 L49.0083334,112.422083 L47.0083334,112.422083 L47.0083334,108.422083 Z M47.0083334,100.422083 L49.0083334,100.422083 L49.0083334,104.422083 L47.0083334,104.422083 L47.0083334,100.422083 Z M47.0083334,92.4220834 L49.0083334,92.4220834 L49.0083334,96.4220834 L47.0083334,96.4220834 L47.0083334,92.4220834 Z M47.0083334,84.4220834 L49.0083334,84.4220834 L49.0083334,88.4220834 L47.0083334,88.4220834 L47.0083334,84.4220834 Z M47.0083334,76.4220834 L49.0083334,76.4220834 L49.0083334,80.4220834 L47.0083334,80.4220834 L47.0083334,76.4220834 Z M47.0083334,68.4220834 L49.0083334,68.4220834 L49.0083334,72.4220834 L47.0083334,72.4220834 L47.0083334,68.4220834 Z M47.0083334,60.4220834 L49.0083334,60.4220834 L49.0083334,64.4220834 L47.0083334,64.4220834 L47.0083334,60.4220834 Z M47.0083334,52.4220834 L49.0083334,52.4220834 L49.0083334,56.4220834 L47.0083334,56.4220834 L47.0083334,52.4220834 Z M47.0083334,44.4220834 L49.0083334,44.4220834 L49.0083334,48.4220834 L47.0083334,48.4220834 L47.0083334,44.4220834 Z M47.0083334,36.4220834 L49.0083334,36.4220834 L49.0083334,40.4220834 L47.0083334,40.4220834 L47.0083334,36.4220834 Z M47.0083334,28.4220834 L49.0083334,28.4220834 L49.0083334,32.4220834 L47.0083334,32.4220834 L47.0083334,28.4220834 Z M47.4216666,20.0604166 L49.255,20.8604166 C49.091188,21.237458 49.0072035,21.6443287 49.0083246,22.0554166 L49.0083246,24.4220834 L47.0083246,24.4220834 L47.0083246,22.05375 C47.0070427,21.3657461 47.1477552,20.6848789 47.4216666,20.05375 L47.4216666,20.0604166 Z M51.9616666,17.0604166 L51.98,19.0604166 C51.8568234,19.0611251 51.7338093,19.0694745 51.6116666,19.0854166 L51.3416666,17.0970834 C51.5444654,17.0700247 51.7487454,17.0555525 51.9533334,17.05375 L51.9616666,17.0604166 Z" id="形状" fill="#DCDFE6"></path>
            <path d="M28,102.053739 L72.2133334,102.053739 C74.4224724,102.053739 76.2133334,103.844611 76.2133334,106.05375 L76.2133334,111.102083 C76.2133334,113.311222 78.0041944,115.102083 80.2133334,115.102083 L119.78,115.102083 C121.989139,115.102083 123.78,113.311222 123.78,111.102083 L123.78,106.05875 C123.78,103.849611 125.570861,102.05875 127.78,102.05875 L171.993327,102.05875 C173.097903,102.05875 173.993327,102.954181 173.993327,104.05875 L173.993327,160.05875 C173.993327,161.163319 173.097903,162.05875 171.993327,162.05875 L27.9933271,162.05875 C27.4629004,162.05875 26.9541926,161.848036 26.5791198,161.472964 C26.2040471,161.097891 25.9933271,160.589183 25.9933271,160.05875 L25.9933271,104.05875 C25.9933271,103.526294 26.2030404,103.015286 26.5797012,102.638938 C26.956362,102.26259 27.4675453,102.051973 28,102.053739 Z" id="路径" fill="#FFFFFF"></path>
            <path d="M28,101.05375 L72.2133334,101.05375 C74.9747571,101.05375 77.2133334,103.292326 77.2133334,106.05375 L77.2133334,111.092083 C77.2133334,112.748938 78.5564791,114.092083 80.2133334,114.092083 L119.786667,114.092083 C121.443521,114.092083 122.786667,112.748938 122.786667,111.092083 L122.786667,106.04875 C122.786667,103.287326 125.025243,101.04875 127.786667,101.04875 L172,101.04875 C173.656854,101.04875 175,102.391896 175,104.04875 L175,160.04875 C175,161.705604 173.656854,163.04875 172,163.04875 L28,163.04875 C26.3431458,163.04875 25,161.705604 25,160.04875 L25,104.04875 C25.0027582,102.393849 26.3450964,101.053748 28,101.05375 L28,101.05375 Z M28,103.05375 C27.4477153,103.05375 27,103.501465 27,104.05375 L27,160.05375 C27,160.318966 27.1053568,160.57332 27.2928932,160.760857 C27.4804296,160.948393 27.7347835,161.05375 28,161.05375 L172,161.05375 C172.552285,161.05375 173,160.606035 173,160.05375 L173,104.05375 C173,103.501465 172.552285,103.05375 172,103.05375 L127.786667,103.05375 C126.991017,103.05375 126.227955,103.369821 125.665346,103.93243 C125.102737,104.495039 124.786667,105.258101 124.786667,106.05375 L124.786667,111.092083 C124.786667,113.853507 122.54809,116.092083 119.786667,116.092083 L80.2133334,116.092083 C77.4519096,116.092083 75.2133334,113.853507 75.2133334,111.092083 L75.2133334,106.04875 C75.2133334,104.391896 73.8701876,103.04875 72.2133334,103.04875 L28,103.05375 Z" id="形状" fill="#DCDFE6"></path>
            <path d="M107.223396,135.526871 L98.8501092,130.300138 C97.6749331,129.567433 96.1898987,129.524325 94.9732839,130.187599 C93.756669,130.850874 93.0007943,132.115681 93,133.489502 L93,143.947998 C93.0007943,145.321819 93.756669,146.586626 94.9732839,147.249901 C96.1898987,147.913175 97.6749331,147.870067 98.8501092,147.137362 L107.223396,141.910629 C108.329553,141.218001 109,140.013464 109,138.71875 C109,137.424036 108.329553,136.219499 107.223396,135.526871 Z" id="路径" fill="#B3B3B3"></path>
            <g id="编组-7" transform="translate(129.000000, 0.718750)" fill="#FA7268">
                <g id="编组-6" transform="translate(0.805361, 0.000000)">
                    <g id="bg-question" transform="translate(31.367726, 15.459860) rotate(14.000000) translate(-31.367726, -15.459860) translate(22.867726, 1.959860)">
                        <g id="编组-4" transform="translate(0.458378, 0.236291)">
                            <path d="M12.2084322,14.3391445 C10.6999815,15.8913184 9.73026319,17.0739271 9.64047443,18.0347966 C9.5661893,18.8338382 8.91209409,19.4427923 8.13202372,19.4393456 L7.98836176,19.4393456 C7.58756848,19.4017538 7.21791177,19.2011184 6.96160702,18.8818616 C6.70530226,18.5626048 6.58360179,18.1511988 6.62357302,17.7391444 C7.14930335,15.5180669 8.39764559,13.548895 10.1612491,12.1587097 C12.8728688,9.36849226 12.9267421,8.4630575 12.9626576,7.53914443 C13.0120938,6.425441 12.6086912,5.34083686 11.8492772,4.54566617 C10.9438323,3.56328875 9.68116428,3.01411399 8.36547444,3.03044881 C5.86619148,3.03044881 3.84012233,5.1152446 3.84012233,7.68697055 C3.84012229,8.54931514 2.8640145,9.26283411 2.0259613,9.26283411 C0.307208091,9.1511514 -4.28620247e-06,7.57237066 -4.28620247e-06,6.71002607 C0.0491754522,2.44973531 4.22489985,-0.000186361032 8.36547444,-0.000186361032 C10.4952869,-0.00408181012 12.5335061,0.89094348 14.0042068,2.47610098 C15.3038408,3.87256743 15.9916281,5.75537829 15.907728,7.68697055 C15.7999815,9.701101 15.2073758,11.2717531 12.2084322,14.3391445 Z" id="路径"></path>
                            <path d="M8.09610824,25.0643161 C7.10432928,25.0643161 6.30033358,24.2370162 6.30033358,23.21649 C6.30033358,22.1959638 7.10432928,21.3686639 8.09610824,21.3686639 C9.0878872,21.3686639 9.8918829,22.1959638 9.8918829,23.21649 C9.8918829,24.2370162 9.0878872,25.0643161 8.09610824,25.0643161 Z" id="路径"></path>
                        </g>
                    </g>
                    <g id="bg-question备份" transform="translate(10.901682, 20.626036) rotate(-22.000000) translate(-10.901682, -20.626036) translate(4.401682, 10.126036)">
                        <g id="编组-4" transform="translate(0.000000, 0.326993)">
                            <path d="M9.67410804,12.1034005 C8.41032029,13.3961513 7.32131463,13.9191694 7.24608915,14.7194437 C7.18385269,15.3849372 6.63584836,15.8921135 5.98230139,15.8892306 L5.86194067,15.8892306 C5.52615399,15.857934 5.2164537,15.6908319 5.00172026,15.4249342 C4.78698682,15.1590365 4.68502554,14.8163909 4.71851364,14.4732054 C5.15897322,12.6233485 6.48141142,11.4452297 7.95896752,10.2873935 C10.2307765,7.96352001 10.1814343,7.77242341 10.2115245,7.00292887 C10.2529425,6.07536465 9.99004187,5.3630308 9.35380093,4.70076124 C8.59521453,3.88257381 7.53734474,3.42518557 6.43505303,3.43879026 C4.34114091,3.43879026 3.2184102,4.76280761 3.2184102,6.90470725 C3.21841017,7.62292357 2.40062204,8.2171883 1.69849677,8.2171883 C0.258516487,8.12417172 0.00113596824,6.80926105 0.00113596824,6.09104472 C0.426345508,3.2101234 2.96605835,0.914597953 6.43505303,0.914779456 C8.21942083,0.911436969 9.92705138,1.6568719 11.159212,2.97709355 C12.248052,4.14016109 12.7492117,5.5172931 12.6789197,7.12604802 C12.5886491,8.80354607 12.1866384,9.54867873 9.67410804,12.1034005 Z" id="路径"></path>
                            <path d="M6.20894711,19.8314607 C5.4199689,19.8314607 4.78037568,19.1918675 4.78037568,18.4028893 C4.78037568,17.6139111 5.4199689,16.9743179 6.20894711,16.9743179 C6.99792532,16.9743179 7.63751854,17.6139111 7.63751854,18.4028893 C7.63751854,19.1918675 6.99792532,19.8314607 6.20894711,19.8314607 Z" id="路径"></path>
                        </g>
                    </g>
                </g>
            </g>
        </g>
    </g>
</svg>