<?xml version="1.0" standalone="no"?><!DOCTYPE svg PUBLIC "-//W3C//DTD SVG 1.1//EN" "http://www.w3.org/Graphics/SVG/1.1/DTD/svg11.dtd"><svg t="1640608391477" class="icon" viewBox="0 0 1024 1024" version="1.1" xmlns="http://www.w3.org/2000/svg" p-id="235988" xmlns:xlink="http://www.w3.org/1999/xlink" width="200" height="200"><defs><style type="text/css"></style></defs><path d="M727.771429 307.2l1.097142 4.388571 4.388572 1.097143c18.651429 4.388571 35.474286 6.582857 50.834286 6.582857 32.182857 0 57.417143-9.142857 76.068571-27.794285 27.428571-27.428571 34.742857-70.217143 21.211429-127.268572l-1.097143-4.388571-4.388572-1.097143c-56.685714-13.165714-99.474286-6.217143-127.268571 21.211429-27.062857 27.428571-34.377143 70.217143-20.845714 127.268571z m31.451428-117.028571c23.04-23.04 59.611429-29.257143 108.982857-18.285715 10.605714 49.371429 4.388571 85.942857-18.285714 108.982857-23.04 23.04-59.611429 29.257143-108.982857 18.285715-10.605714-49.371429-4.388571-85.942857 18.285714-108.982857z m5.485714 87.405714c-1.828571-3.657143-0.365714-8.045714 2.925715-9.874286 19.017143-9.874286 34.377143-22.674286 46.811428-37.668571l-39.497143-4.388572c-4.022857-0.365714-6.948571-4.022857-6.582857-8.045714 0.365714-4.022857 4.022857-6.948571 8.045715-6.582857l46.445714 5.12h0.731428c5.12-8.411429 9.508571-17.554286 12.8-27.062857 1.462857-3.657143 5.485714-5.851429 9.142858-4.388572 3.657143 1.462857 5.851429 5.485714 4.388571 9.142857-4.388571 13.165714-10.605714 24.868571-17.92 35.84l2.56 32.914286v0.731429c0 3.657143-2.925714 6.948571-6.582857 7.314285h-0.731429c-3.657143 0-6.948571-2.925714-7.314285-6.582857l-1.462858-17.188571c-12.434286 13.165714-27.062857 24.502857-44.617142 34.011428-1.097143 0.731429-2.194286 0.731429-3.291429 0.731429-2.194286 0-4.388571-1.462857-5.851429-4.022857zM198.582857 303.908571c6.948571 1.828571 13.897143 2.925714 20.845714 2.925715 25.6 0 52.297143-12.068571 79.725715-35.84l3.657143-3.291429-1.462858-4.754286c-14.994286-43.885714-38.765714-70.582857-70.217142-78.994285s-65.462857 2.56-100.205715 33.28l-3.657143 3.291428 1.462858 4.754286c14.262857 43.52 38.034286 70.217143 69.851428 78.628571z m28.16-106.057142c25.6 6.948571 45.348571 28.525714 58.514286 65.097142-29.622857 24.868571-57.782857 33.645714-83.382857 27.062858-25.6-6.948571-45.348571-28.525714-58.514286-65.097143 29.988571-24.868571 57.782857-33.645714 83.382857-27.062857zM200.411429 252.342857c-14.628571-4.388571-28.525714-10.971429-41.691429-19.017143-3.291429-2.194286-4.388571-6.582857-2.194286-10.24 2.194286-3.291429 6.582857-4.388571 10.24-2.194285 12.068571 7.68 25.234286 13.531429 38.4 17.554285 4.388571 1.462857 10.971429 2.925714 18.651429 4.022857l-9.508572-27.428571c-1.462857-3.657143 0.731429-8.045714 4.754286-9.142857 3.657143-1.462857 8.045714 0.731429 9.142857 4.754286l11.702857 34.742857c7.68 1.097143 16.457143 1.828571 26.331429 2.925714 4.022857 0.365714 6.948571 4.022857 6.582857 8.045714-0.365714 3.657143-3.657143 6.582857-7.314286 6.582857h-0.731428c-11.337143-1.097143-21.211429-2.194286-29.988572-3.291428L208.457143 279.04c-1.462857 1.097143-3.291429 1.828571-4.754286 1.828571-2.194286 0-4.022857-0.731429-5.485714-2.56-1.097143-1.462857-1.828571-3.291429-1.828572-4.754285 0-2.194286 0.731429-4.022857 2.56-5.485715l17.188572-11.337142c-6.582857-2.194286-11.702857-3.291429-15.725714-4.388572zM610.742857 94.72c0-1.462857 0-2.925714-0.365714-4.022857l14.628571-2.194286c0.365714 1.828571 0.365714 4.022857 0.365715 6.217143 0 6.948571-1.462857 14.628571-4.754286 22.674286l-13.531429-5.485715c2.56-6.217143 3.657143-12.068571 3.657143-17.188571z m-10.24-19.748571c-5.12-3.291429-12.434286-5.12-20.845714-5.851429l0.731428-14.628571c10.971429 0.731429 20.48 3.291429 27.794286 7.68l-7.68 12.8z m-24.137143 84.845714l-4.022857-13.897143c5.485714-1.462857 10.971429-3.657143 16.822857-5.485714 2.194286-2.56 4.388571-5.12 6.217143-8.045715l11.702857 8.777143c-2.194286 2.56-4.388571 5.485714-6.582857 8.045715l0.731429 1.828571c-1.097143 0.365714-2.56 1.097143-3.657143 1.462857-2.56 2.925714-5.485714 5.851429-8.411429 8.411429l-3.657143-4.022857c-3.291429 1.097143-6.217143 1.828571-9.142857 2.925714z m41.691429-33.28c7.314286-4.022857 14.262857-8.411429 21.211428-12.8l8.045715 12.068571c-7.314286 4.754286-14.994286 9.508571-22.308572 13.531429l-6.948571-12.8zM705.828571 73.142857l-11.337142-9.508571c5.485714-6.217143 10.24-12.8 14.994285-19.748572l12.068572 8.411429c-4.754286 7.314286-10.24 14.262857-15.725715 20.845714z m-166.4 106.788572c7.314286-4.388571 14.262857-8.777143 20.845715-13.531429l8.777143 11.702857c-6.948571 5.12-14.262857 9.874286-21.942858 14.628572l-7.68-12.8z m196.388572-149.942858l-12.8-7.314285c4.022857-7.314286 8.045714-14.628571 11.337143-22.308572l13.165714 6.217143c-3.657143 8.045714-7.68 16.091429-11.702857 23.405714z m-67.291429 80.091429l-9.142857-11.337143c6.217143-5.12 12.434286-10.971429 18.651429-16.822857l10.24 10.24c-6.582857 6.582857-13.165714 12.434286-19.748572 17.92zM398.628571 238.811429l-1.462857-14.628572c8.411429-1.097143 16.822857-2.194286 24.868572-3.291428l2.56 14.262857c-8.777143 1.462857-17.554286 2.925714-25.965715 3.657143z m133.12-166.4l-6.582857-7.68 2.194286-1.828572 1.462857-0.365714c8.411429-2.56 16.822857-4.388571 24.502857-5.485714l2.194286 14.262857c-6.948571 1.097143-14.628571 2.925714-22.674286 5.12l-1.097143-4.022857zM346.697143 241.737143v-14.628572c8.411429 0 16.822857-0.365714 25.234286-0.731428l0.731428 14.628571c-8.411429 0.365714-17.188571 0.731429-25.965714 0.731429z m-25.965714-0.365714c-3.291429 0-6.582857-0.365714-10.24-0.365715l0.731428-14.628571c3.291429 0.365714 6.582857 0.365714 9.874286 0.365714l-0.365714 14.628572z m129.097142-10.971429l-3.291428-14.262857c8.411429-1.828571 16.457143-4.022857 24.137143-6.582857l4.388571 13.897143c-8.411429 2.56-16.822857 4.754286-25.234286 6.948571z m29.988572-98.377143h14.628571c0 6.582857 2.925714 10.971429 8.777143 14.628572l-7.314286 12.434285c-10.605714-6.217143-16.091429-15.725714-16.091428-27.062857z m14.628571 69.485714c8.045714-2.925714 15.725714-6.217143 23.04-9.874285l6.217143 13.165714c-7.68 3.657143-15.725714 7.314286-24.137143 10.24l-5.12-13.531429z m36.571429-34.742857c-2.56 0-5.485714 0-7.68-0.365714l1.097143-14.628571c2.194286 0 4.388571 0.365714 6.948571 0.365714 5.485714 0 10.971429-0.365714 17.188572-1.097143l2.194285 14.628571c-7.314286 0.731429-13.531429 1.097143-19.748571 1.097143z m-29.622857-55.222857l-12.434286-7.68c4.022857-6.582857 9.874286-13.897143 16.822857-21.211428l10.605714 9.874285c-6.217143 6.582857-11.337143 13.165714-14.994285 19.017143z m492.251428 454.948572l-73.874285-147.382858c-1.462857-2.56-3.657143-4.754286-5.851429-5.851428-1.097143-1.097143-2.194286-1.828571-3.291429-2.194286l-351.451428-109.348571c-6.582857-2.194286-13.531429-2.194286-20.114286-0.731429L96.548571 409.6c-2.925714 0.731429-5.12 2.925714-5.851428 5.485714-1.097143 1.097143-2.194286 2.56-2.925714 4.022857L29.988571 566.491429c-1.462857 3.657143-1.097143 7.68 0.365715 11.337142 1.828571 3.657143 4.754286 6.217143 8.777143 7.314286l47.542857 14.262857v305.005715c0 6.582857 4.022857 12.068571 10.24 13.897142l336.457143 102.034286c1.462857 0.365714 2.925714 0.731429 4.388571 0.731429 1.828571 0 3.657143-0.365714 5.12-1.097143 0.365714 0.365714 1.097143 0.731429 1.828571 1.097143 2.194286 1.462857 5.12 2.194286 7.68 2.194285 1.097143 0 2.194286 0 3.291429-0.365714l449.828571-105.691428c6.582857-1.462857 11.337143-7.314286 11.337143-14.262858v-302.445714l68.754286-16.091428c3.657143-0.731429 6.948571-3.291429 8.411429-6.948572 1.462857-3.657143 1.462857-7.314286-0.365715-10.971428z m-110.811428-148.48l-45.714286 10.605714-284.16 65.828571v-179.2c0.731429 0 1.097143 0.365714 1.828571 0.365715l328.045715 102.4z m-344.502857-101.668572v181.394286l-87.771429 20.114286-217.965714-65.462858-110.811429-34.377142 416.548572-101.668572zM99.84 428.617143h1.462857L288.914286 485.302857l148.845714 46.08v6.582857L387.657143 674.011429l-343.771429-102.765715 55.954286-142.628571z m1.462857 475.794286v-300.617143l282.697143 84.48c1.462857 0.365714 2.56 0.731429 4.022857 0.731428 5.851429 0 11.337143-3.657143 13.165714-9.142857l36.205715-98.742857v425.325714l-336.091429-102.034285z m800.914286-1.097143l-449.828572 105.691428v-468.114285l0.731429-2.56 67.657143 144.457142c2.194286 4.388571 6.582857 7.314286 11.337143 7.314286 1.097143 0 1.828571 0 2.925714-0.365714l367.177143-85.942857V903.314286z m-369.005714-228.205715l-66.925715-143.36 404.48-95.817142 31.451429-7.314286h6.217143l70.948571 141.897143-446.171428 104.594285z" fill="#bfbfbf" p-id="235989"></path></svg>