<?xml version="1.0" standalone="no"?><!DOCTYPE svg PUBLIC "-//W3C//DTD SVG 1.1//EN" "http://www.w3.org/Graphics/SVG/1.1/DTD/svg11.dtd"><svg t="1688281451577" class="icon" viewBox="0 0 1024 1024" version="1.1" xmlns="http://www.w3.org/2000/svg" p-id="14711" xmlns:xlink="http://www.w3.org/1999/xlink" width="48" height="48"><path d="M121.018168 956.064147h781.26231a33.967927 33.967927 0 0 1 33.967926 33.967926v33.967927H87.050241v-33.967927a33.967927 33.967927 0 0 1 33.967927-33.967926zM876.804533 157.817874H618.733211l162.281769-93.411798a33.967927 33.967927 0 1 0-33.967927-58.764513L511.649323 141.17359 276.251592 5.301884a33.967927 33.967927 0 1 0-33.967927 58.764513l162.281769 93.411798H146.494113a135.871706 135.871706 0 0 0-135.871706 135.871706v475.550971a135.871706 135.871706 0 0 0 135.871706 135.871706h730.31042a135.871706 135.871706 0 0 0 135.871706-135.871706v-475.550971a135.871706 135.871706 0 0 0-135.871706-135.532027z" fill="#AFE1FA" p-id="14712"></path><path d="M681.488955 487.306761L426.729506 340.225639a50.95189 50.95189 0 0 0-76.427834 44.158305v294.162243a50.95189 50.95189 0 0 0 76.427834 44.158305L681.488955 575.62337a50.95189 50.95189 0 0 0 0-88.316609z" fill="#F5834A" p-id="14713"></path></svg>